<?xml version="1.0" encoding="utf-8"?>
<!-- Generator: Adobe Illustrator 19.0.0, SVG Export Plug-In . SVG Version: 6.00 Build 0)  -->
<svg version="1.1" id="图层_1" xmlns="http://www.w3.org/2000/svg" xmlns:xlink="http://www.w3.org/1999/xlink" x="0px" y="0px"
	 viewBox="0 0 64 64" style="enable-background:new 0 0 64 64;" xml:space="preserve">
<style type="text/css">
	.st0{fill:#FFFFFF;}
</style>
<path id="XMLID_4_" class="st0" d="M32.7,35.8c-0.1,0-0.3,0-0.4,0c-1.9-0.2-3.3-2.2-4.6-4.1c-1.1-1.5-2.2-3.2-3.3-3.2
	c-0.5,0-1.5,0.4-3,3.1C20,34,17.1,34.1,17,34.1c-0.5,0-1-0.4-1-1c0-0.6,0.4-1,1-1c0,0,1.9-0.1,2.7-1.5c1.6-2.7,3.1-4,4.7-4.1
	c2.1-0.1,3.6,2,5,4c1,1.5,2.2,3.1,3.2,3.2c1.4,0.1,1.9-1.8,2.6-5.1c0.7-3.3,1.5-7,4.6-7.9c3.2-0.9,4.7,2.1,5.7,4
	c0.4,0.8,1.1,2.2,1.5,2.2c0,0,0,0,0.1,0c0.5,0,1,0.4,1,0.9c0,0.6-0.4,1-0.9,1c-1.7,0.1-2.5-1.6-3.4-3.3c-1.2-2.5-2-3.4-3.4-3
	c-1.9,0.6-2.6,3.6-3.2,6.4C36.4,32.3,35.7,35.8,32.7,35.8z"/>
<path id="XMLID_3_" class="st0" d="M47,43.4H17c-0.6,0-1-0.4-1-1s0.4-1,1-1h30c0.6,0,1,0.4,1,1S47.6,43.4,47,43.4z"/>
</svg>
