<?xml version="1.0" encoding="utf-8"?>
<!-- Generator: Adobe Illustrator 19.0.0, SVG Export Plug-In . SVG Version: 6.00 Build 0)  -->
<svg version="1.1" id="图层_1" xmlns="http://www.w3.org/2000/svg" xmlns:xlink="http://www.w3.org/1999/xlink" x="0px" y="0px"
	 viewBox="0 0 64 64" style="enable-background:new 0 0 64 64;" xml:space="preserve">
<style type="text/css">
	.st0{fill-rule:evenodd;clip-rule:evenodd;fill:#FFFFFF;}
</style>
<g>
	<path class="st0" d="M48.8,44.7c-0.2,0.1-0.4,0.2-0.6,0.2c-0.3,0-0.6-0.2-0.8-0.4l-0.3-0.4c-0.2-0.3-0.4-0.6-0.6-0.8
		c0,0-1.1-1.5-4.9-1.7c0,0,0,0,0,0c-0.8,0-1.6-0.5-1.6-1.8c0,0,0-0.9,0-0.9c0-0.4,0.2-0.7,0.6-0.9c0.6-0.3,1.1-0.6,1.6-1
		c0.6-0.4,1.3-1.1,1.3-1.4c0-0.1,0-0.1,0-0.2c0.2-1,0.7-3.8,0.7-4.8c0-3.6-1.8-5.5-5.5-5.5c-0.6,0-1-0.4-1-1c0-0.6,0.4-1,1-1
		c4.7,0,7.5,2.7,7.5,7.5c0,1.3-0.6,4.5-0.7,5.1c-0.1,1.6-1.8,2.8-2.2,3c-0.4,0.3-0.9,0.6-1.3,0.9c0,0,0,0.1,0,0.1
		c4.8,0.3,6.1,2.4,6.3,2.6c0.1,0.2,0.3,0.5,0.5,0.7l0.3,0.4C49.4,43.8,49.3,44.4,48.8,44.7z M38.7,42.1c0.2,0.3,0.4,0.6,0.6,0.9
		l0.4,0.5c0.3,0.5,0.2,1.1-0.3,1.4c-0.2,0.1-0.4,0.2-0.6,0.2c-0.3,0-0.6-0.2-0.8-0.4l-0.3-0.5c-0.2-0.3-0.5-0.7-0.7-1
		c0,0-1.3-2-6.2-2.2c0,0,0,0,0,0c-1,0-1.7-0.8-1.7-1.9c0,0,0-1,0-1.1c0-0.4,0.2-0.7,0.6-0.9c0.7-0.3,1.4-0.7,2-1.2
		c0.8-0.5,1.7-1.4,1.7-1.9c0-0.1,0-0.1,0-0.2c0.2-1.2,0.9-4.7,0.9-5.9c0-4.6-2.3-6.9-6.9-6.9c-4.6,0-6.9,2.3-6.9,6.9
		c0,1.3,0.6,4.7,0.9,5.9c0,0.1,0,0.1,0,0.2c0,0.6,1,1.5,1.6,1.9c0.8,0.5,1.5,0.9,2.1,1.3c0.3,0.2,0.6,0.5,0.6,0.9c0,0.1,0,1.2,0,1.2
		c0,1.2-0.8,2-1.8,2c-4.8,0.2-6.2,2.1-6.2,2.2c-0.2,0.3-0.5,0.7-0.7,1l-0.3,0.5c-0.3,0.5-0.9,0.6-1.4,0.3c-0.5-0.3-0.6-0.9-0.3-1.4
		l0.3-0.5c0.2-0.3,0.4-0.6,0.6-1c0.2-0.3,1.9-2.8,7.7-3.1c0-0.1,0-0.3,0-0.5c-0.6-0.3-1.2-0.7-1.8-1.1c-0.2-0.1-2.4-1.6-2.5-3.5
		c-0.1-0.6-0.9-4.6-0.9-6.2c0-5.7,3.2-8.9,8.9-8.9c5.6,0,8.9,3.2,8.9,8.9c0,1.6-0.8,5.6-0.9,6.2c-0.1,1.8-2.1,3.2-2.6,3.5
		c-0.6,0.4-1.1,0.8-1.7,1.1c0,0.2,0,0.4,0,0.4C36.9,39.4,38.5,41.9,38.7,42.1z"/>
</g>
</svg>
