<?xml version="1.0" encoding="utf-8"?>
<!-- Generator: Adobe Illustrator 19.0.0, SVG Export Plug-In . SVG Version: 6.00 Build 0)  -->
<svg version="1.1" id="图层_1" xmlns="http://www.w3.org/2000/svg" xmlns:xlink="http://www.w3.org/1999/xlink" x="0px" y="0px"
	 viewBox="0 0 64 64" style="enable-background:new 0 0 64 64;" xml:space="preserve">
<style type="text/css">
	.st0{fill-rule:evenodd;clip-rule:evenodd;fill:#FFFFFF;}
</style>
<path id="XMLID_4_" class="st0" d="M48.5,36.8h-3.6c-0.4,0-0.7-0.2-0.9-0.5l-1-1.8l-2.4,5.3c-0.2,0.4-0.5,0.6-0.9,0.6
	c0,0-0.1,0-0.1,0c-0.4,0-0.8-0.3-0.9-0.8l-1.7-6.8L36.2,36c-0.1,0.4-0.5,0.7-1,0.7h-4.6c-0.6,0-1-0.4-1-1c0-0.6,0.4-1,1-1h3.9
	l1.7-6.2c0.1-0.4,0.5-0.8,1-0.8c0,0,0,0,0,0c0.5,0,0.8,0.4,1,0.9l1.9,7.7l2.1-4.5c0.2-0.3,0.5-0.6,0.9-0.6c0.4,0,0.7,0.2,0.9,0.5
	l1.7,3h3c0.6,0,1,0.4,1,1C49.5,36.3,49.1,36.8,48.5,36.8z M44.3,29.2c-0.5,0-1-0.4-1-0.9c0,0,0,0,0-0.1c0,0,0-0.1,0-0.1
	c-0.1-3.9-3.3-7.2-7-7.2c-2.1,0-4.1,1-5.4,2.9c-0.4,0.5-1.2,0.5-1.6,0c-1.4-1.8-3.4-2.9-5.5-2.9c-3.7,0-6.9,3.3-7,7.2
	c0,0,0,0.1,0,0.1c0,0.1,0,0.2,0,0.3c0.3,9.3,11.1,13.8,13.1,14.6c0.8-0.3,3-1.1,5.3-2.6c0.5-0.3,1.1-0.2,1.4,0.3
	c0.3,0.5,0.2,1.1-0.3,1.4c-3.2,2-6,2.9-6.1,3c-0.1,0-0.2,0-0.3,0c-0.1,0-0.2,0-0.3-0.1c-0.6-0.2-14.4-4.9-14.8-16.5
	c0-0.1,0-0.2,0-0.4c0,0,0,0,0-0.1c0,0,0,0,0-0.1c0-0.1,0-0.1,0-0.2c0.2-4.9,4.3-9,9-9c2.3,0,4.5,1,6.2,2.7c1.7-1.7,3.9-2.7,6.2-2.7
	c4.7,0,8.8,4.1,9,9c0,0.1,0,0.1,0,0.2c0,0,0,0,0,0.1c0,0,0,0,0,0.1C45.3,28.8,44.8,29.2,44.3,29.2z"/>
</svg>
