<?xml version="1.0" encoding="utf-8"?>
<!-- Generator: Adobe Illustrator 19.0.0, SVG Export Plug-In . SVG Version: 6.00 Build 0)  -->
<svg version="1.1" id="图层_1" xmlns="http://www.w3.org/2000/svg" xmlns:xlink="http://www.w3.org/1999/xlink" x="0px" y="0px"
	 viewBox="0 0 64 64" style="enable-background:new 0 0 64 64;" xml:space="preserve">
<style type="text/css">
	.st0{fill-rule:evenodd;clip-rule:evenodd;fill:#FFFFFF;}
</style>
<path class="st0" d="M46,40.5h-1.5v3.9c0,0.4-0.2,0.8-0.6,0.9c-0.1,0.1-0.3,0.1-0.4,0.1c-0.2,0-0.5-0.1-0.7-0.3l-5.4-4.7H30
	c-1.4,0-2.5-1.1-2.5-2.5V28c0-1.4,1.1-2.5,2.5-2.5H46c1.4,0,2.5,1.1,2.5,2.5v10.1C48.5,39.4,47.4,40.5,46,40.5z M46.5,28
	c0-0.3-0.2-0.5-0.5-0.5H30c-0.3,0-0.5,0.2-0.5,0.5v10.1c0,0.3,0.2,0.5,0.5,0.5h7.8c0.3,0,0.5,0.1,0.7,0.3l4,3.6v-2.9
	c0-0.6,0.4-1,1-1H46c0.3,0,0.5-0.2,0.5-0.5V28z M38.5,24.5c-0.6,0-1-0.4-1-1V21c0-0.3-0.2-0.5-0.5-0.5l-19,0c-0.3,0-0.5,0.2-0.5,0.5
	v11c0,0.3,0.2,0.5,0.5,0.5h2.5c0.6,0,1,0.4,1,1v2.7l3.4-3.3c0.4-0.4,1-0.4,1.4,0c0.4,0.4,0.4,1,0,1.4l-4.9,4.9
	c-0.2,0.2-0.5,0.3-0.7,0.3c-0.1,0-0.4,0-0.6-0.1c-0.4-0.2-0.6-0.5-0.6-0.9v-3.9H18c-1.4,0-2.5-1.1-2.5-2.5V21c0-1.4,1.1-2.5,2.5-2.5
	l19,0c1.4,0,2.5,1.1,2.5,2.5v2.5C39.5,24,39,24.5,38.5,24.5z"/>
</svg>
