<?xml version="1.0" encoding="utf-8"?>
<!-- Generator: Adobe Illustrator 19.0.0, SVG Export Plug-In . SVG Version: 6.00 Build 0)  -->
<svg version="1.1" id="图层_1" xmlns="http://www.w3.org/2000/svg" xmlns:xlink="http://www.w3.org/1999/xlink" x="0px" y="0px"
	 viewBox="-242 365.9 110 110" style="enable-background:new -242 365.9 110 110;" xml:space="preserve">
<style type="text/css">
	.st0{opacity:0.95;fill:#FFFFFF;enable-background:new    ;}
	.st1{opacity:0.9;fill-rule:evenodd;clip-rule:evenodd;fill:#FFFFFF;}
</style>
<path class="st0" d="M-187,365.9c-30.4,0-55,24.6-55,55c0,30.4,24.6,55,55,55s55-24.6,55-55C-132,390.5-156.6,365.9-187,365.9z
	 M-187,473.9c-29.2,0-53-23.8-53-53c0-29.2,23.8-53,53-53s53,23.8,53,53C-134,450.1-157.8,473.9-187,473.9z"/>
<path class="st1" d="M-213.8,408.8c0.7,4,3,8.2,6.2,11.5c4.1,4.2,12.9,3.2,22.2,2.1c4.7-0.5,9.8-1.1,13.6-0.8l-16.3,11.2
	c0.2-1.9,0.5-3.9,0.7-4.8c0.2-1.2-0.6-2.3-1.7-2.4c-1.2-0.2-2.3,0.6-2.4,1.7c-1,5.7-1.1,9-0.4,11.1c2,6.5,8.8,10,9.1,10.1
	c0.3,0.2,0.6,0.2,0.9,0.2c0.8,0,1.5-0.4,1.9-1.2c0.5-1.1,0.1-2.3-1-2.8c0,0-1.1-0.6-2.4-1.6l20.6-10.9c0.1,1,0.1,1.6,0.1,1.6
	c0,1.2,0.9,2.2,2.1,2.2c0,0,0,0,0.1,0c1.1,0,2.1-0.9,2.1-2.1c0-0.4,0.2-8.8-5.1-13.8c-4.2-4-12.9-3-22.1-1.9
	c-4.9,0.6-10.3,1.2-14.1,0.8l15.8-11.8c-0.1,1.9-0.8,3.9-2.5,5.9c-0.8,0.9-0.7,2.2,0.2,3c0.4,0.4,0.9,0.5,1.4,0.5
	c0.6,0,1.2-0.2,1.6-0.7c5.8-6.5,3.7-14.2,0.4-17.3c-2.9-2.9-6.1-4.7-6.3-4.8c-1-0.6-2.3-0.2-2.9,0.8c-0.6,1-0.2,2.3,0.8,2.9
	c0,0,0.4,0.2,1,0.6l-18.9,10.9c-0.1-0.3-0.2-0.7-0.2-1c-0.2-1.2-1.3-1.9-2.5-1.7C-213.2,406.6-214,407.7-213.8,408.8z M-163.3,430
	l-22,11.6c-0.5-0.5-0.9-1-1.4-1.6l22.1-13.7C-163.9,427.6-163.5,428.9-163.3,430z M-165.6,424.5l-22.1,13.7c-0.1-0.3-0.3-0.6-0.4-1
	c-0.1-0.4-0.2-1.1-0.2-1.7l19.5-13.3c0.9,0.3,1.6,0.6,2.1,1.1C-166.3,423.7-165.9,424.1-165.6,424.5z M-184.4,404.8l-18.4,13.6
	c-0.7-0.3-1.3-0.6-1.7-1c-0.4-0.4-0.8-0.8-1.1-1.3l20.3-13.5C-185,403.2-184.7,404-184.4,404.8z M-188.6,399.5
	c0.6,0.4,1.2,1,1.8,1.5l-20.1,13.4c-0.7-1.1-1.3-2.2-1.8-3.3L-188.6,399.5z"/>
</svg>
