<?xml version="1.0" encoding="utf-8"?>
<!-- Generator: Adobe Illustrator 19.0.0, SVG Export Plug-In . SVG Version: 6.00 Build 0)  -->
<svg version="1.1" id="图层_1" xmlns="http://www.w3.org/2000/svg" xmlns:xlink="http://www.w3.org/1999/xlink" x="0px" y="0px"
	 viewBox="-242 365.9 110 110" style="enable-background:new -242 365.9 110 110;" xml:space="preserve">
<style type="text/css">
	.st0{opacity:0.95;fill:#FFFFFF;enable-background:new    ;}
	.st1{opacity:0.9;}
	.st2{fill-rule:evenodd;clip-rule:evenodd;fill:#FFFFFF;}
</style>
<path class="st0" d="M-187,365.9c-30.4,0-55,24.6-55,55c0,30.4,24.6,55,55,55s55-24.6,55-55C-132,390.5-156.6,365.9-187,365.9z
	 M-187,473.9c-29.2,0-53-23.8-53-53c0-29.2,23.8-53,53-53s53,23.8,53,53C-134,450.1-157.8,473.9-187,473.9z"/>
<g class="st1">
	<g>
		<path class="st2" d="M-162.6,409.5c-8.1-26.3-48.9-15.8-44.7,9.3c0.2,1.3,0.9,1.7,1.2,2.1c0.3,0.4-1.3,3-2.2,4
			c-1,1-2.9,4.8-2.1,5.1c1.4,0.5,3,0.1,3.4,0.7c0.5,0.6,0.7,2.2,0.4,3.1c-0.3,0.9-0.6,1.6-0.3,2.4c0.3,0.8,0.6,1.2,0.6,1.7
			c0,0.5,1.1,0.4,1.4,1c0.3,0.6-0.8,3.9,0.2,5.5c0.7,1,3.1,1.4,6.2,0.5c3.1-1,5-1.9,6.1-1.6c1.1,0.3,0.8,6.3,1,8
			c0.2,1.7,2.1,1.2,4.4,0.5c2.3-0.7,18.4-7,20-8.6c1.6-1.5,0.3-2.4-0.2-4.8c-0.6-3.1-1.1-6.6,1.1-10.2
			C-163.9,424.6-160.3,416.7-162.6,409.5z M-185.2,404c0-0.6,0.5-1.1,1.1-1.1c0.6,0,1.1,0.5,1.1,1.1v3.3c0,0.6-0.5,1.1-1.1,1.1
			c-0.6,0-1.1-0.5-1.1-1.1V404z M-191.1,411.2c-0.3,0-0.6-0.1-0.8-0.3l-2.3-2.3c-0.4-0.4-0.4-1.1,0-1.5c0.4-0.4,1.1-0.4,1.5,0
			l2.3,2.3c0.4,0.4,0.4,1.1,0,1.5C-190.5,411.1-190.8,411.2-191.1,411.2z M-180.9,429.8c0,0.5-0.4,0.8-0.8,0.8h-0.7
			c-0.4,0.6-1,1.1-1.8,1.1c-0.8,0-1.4-0.4-1.8-1.1h-0.7c-0.4,0-0.8-0.4-0.8-0.8v-1.6c0-0.5,0.4-0.8,0.8-0.8h4.9
			c0.4,0,0.8,0.4,0.8,0.8V429.8z M-180.9,424.6v0.4c0,0.4-0.4,0.8-0.8,0.8h-4.9c-0.4,0-0.8-0.4-0.8-0.8v-0.4c0-1.8-3.1-3.9-3.1-7.5
			c0-3.5,2.8-6.3,6.3-6.3c3.5,0,6.3,2.8,6.3,6.3C-177.8,420.7-180.9,422.7-180.9,424.6z M-174.1,408.6l-2.3,2.3
			c-0.2,0.2-0.5,0.3-0.8,0.3c-0.3,0-0.6-0.1-0.8-0.3c-0.4-0.4-0.4-1.1,0-1.5l2.3-2.3c0.4-0.4,1.1-0.4,1.5,0
			C-173.7,407.5-173.7,408.2-174.1,408.6z M-188.3,416.9c0,0.9,0.3,1.7,0.8,2.4c0-0.2,0-0.4,0-0.5c0-2.9,2.4-5.3,5.4-5.3
			c0.1,0,0.2,0,0.2,0c-0.6-0.4-1.4-0.6-2.2-0.6C-186.4,412.8-188.3,414.6-188.3,416.9z"/>
	</g>
</g>
</svg>
