<?xml version="1.0" encoding="utf-8"?>
<!-- Generator: Adobe Illustrator 19.0.0, SVG Export Plug-In . SVG Version: 6.00 Build 0)  -->
<svg version="1.1" id="图层_1" xmlns="http://www.w3.org/2000/svg" xmlns:xlink="http://www.w3.org/1999/xlink" x="0px" y="0px"
	 viewBox="60 -76 160 160" style="enable-background:new 60 -76 160 160;" xml:space="preserve">
<style type="text/css">
	.st0{fill-rule:evenodd;clip-rule:evenodd;fill:#333333;}
	.st1{fill:#3BBE7B;}
	.st2{fill:#FFFFFF;}
</style>
<path class="st0" d="M122.4,68.4h-3.9v-3.9h3.9V68.4z M75.6-9.7h-3.9v-3.9h3.9V-9.7z M208.3,6h3.9v3.9h-3.9V6z M216.1,80.1V84h-3.9
	V72.3h-3.9v-3.9H220v11.7H216.1z M208.3,84H181v-3.9h3.9v-3.9h3.9v3.9h7.8v-3.9h3.9v3.9h3.9v-7.8h3.9V84z M181,72.3h3.9v3.9H181
	V72.3z M177.1,68.4h3.9v3.9h-3.9V68.4z M177.1,64.5v3.9h-3.9V56.7h3.9v3.9h3.9v-3.9v-3.9h3.9v-3.9H181v3.9h-7.8V45h-3.9v7.8h3.9v3.9
	h-3.9v11.7h3.9v3.9h3.9V84h-7.8v-3.9h-3.9v-3.9h-7.8v-3.9h3.9v-3.9h3.9V56.7h-3.9v-3.9h-3.9V37.2h-3.9v-3.9h7.8v3.9v3.9h3.9v-3.9
	h3.9v-3.9h-7.8v-3.9h-11.7v3.9h-3.9v-7.8h3.9v-3.9h3.9v-7.8h3.9v3.9h3.9v7.8h3.9V6h7.8v3.9h3.9v3.9h7.8V9.9h7.8v3.9h-3.9v3.9h3.9
	v3.9h-7.8v-3.9h-7.8v7.8h3.9v3.9h3.9v-3.9h7.8v-3.9h3.9V9.9h-3.9V6h3.9V-5.8h3.9V6h3.9v3.9h-3.9v3.9h7.8v3.9h-7.8v3.9h3.9v3.9v3.9
	h3.9v3.9h-7.8v-7.8h-3.9v7.8h-3.9v-3.9h-3.9v3.9h3.9v3.9h-3.9v3.9h-3.9v-7.8h-7.8v3.9h-3.9v3.9h7.8V45h7.8v3.9h11.7v-7.8h-7.8v-3.9
	h19.5V45h-3.9v7.8h3.9V45h3.9v3.9h3.9v15.6h-3.9v-7.8h-11.7v11.7h-3.9v3.9h-3.9v-3.9H181v-3.9H177.1z M173.2,13.8h-3.9v11.7h3.9
	V13.8z M188.8,64.5h11.7V52.8h-11.7V64.5z M192.7,56.7h3.9v3.9h-3.9V56.7z M216.1,37.2h-3.9v-3.9h3.9v-3.9h-3.9v-3.9h3.9v-7.8h3.9
	V45h-3.9V37.2z M188.8,2h3.9V6h-3.9V2z M177.1,6h-3.9V2h-3.9v-3.9h3.9v-3.9h3.9v-3.9h3.9v7.8h7.8V2h-11.7V6z M173.2-17.5h-3.9v3.9
	h-7.8v-3.9h3.9v-11.7h3.9v3.9h3.9v-7.8h-11.7V-37h3.9v-3.9h3.9v-3.9h3.9v-3.9h3.9v7.8h3.9v3.9h-3.9v3.9h3.9v3.9h-3.9v3.9h3.9v3.9
	v3.9h7.8v-3.9h3.9v3.9v3.9h-3.9v3.9h-3.9v-3.9h-7.8v3.9h-3.9V-17.5z M181-29.2h11.7v3.9H181V-29.2z M181-48.7h3.9v3.9h3.9v11.7h-3.9
	v-7.8H181V-48.7z M181-56.5h3.9v3.9H181V-56.5z M177.1-52.6h-3.9v3.9h-3.9v-7.8h3.9v-3.9h3.9v-3.9h3.9v3.9v3.9h-3.9V-52.6z
	 M173.2-68.2h3.9v3.9h-3.9V-68.2z M173.2-72.1v3.9h-3.9v-3.9h-3.9v3.9h-7.8v3.9v3.9h11.7v3.9h-3.9v7.8h-3.9v-7.8h-7.8v3.9h-3.9v-3.9
	h-3.9v3.9H142v-3.9H138v3.9h-3.9v3.9h3.9v3.9v3.9h-3.9v-3.9h-3.9v-7.8h-3.9v-3.9h-7.8v-3.9h7.8v-3.9h-3.9v-3.9h11.7v3.9h3.9v3.9h7.8
	v-3.9h7.8v-3.9h-7.8V-76h11.7v3.9h3.9V-76H181v3.9h3.9v3.9h-7.8v-3.9H173.2z M130.2-37h-3.9v-3.9v-3.9h3.9v3.9V-37z M130.2-33.1V-37
	h3.9v7.8h-3.9v3.9h-7.8v3.9h-3.9v-3.9h-11.7v-3.9h15.6v-3.9h-11.7V-37h3.9v-3.9h3.9v3.9h7.8v3.9H130.2z M106.8-29.2h-3.9V-37h3.9
	V-29.2z M99-40.9h-3.9v-3.9H99v-11.7h7.8v3.9h-3.9V-37H99V-40.9z M83.4-40.9v3.9h-3.9v-3.9h-3.9v-3.9h15.6v3.9H83.4z M87.3-33.1
	h-3.9V-37h3.9V-33.1z M79.5-29.2v3.9H67.8v3.9h7.8v3.9H63.9v-3.9H60v-11.7h3.9v3.9h3.9v-3.9h-3.9v-7.8h3.9v3.9h3.9v3.9h11.7v3.9
	H79.5z M83.4-21.4h-3.9v-3.9h3.9V-21.4z M87.3-17.5h-3.9v-3.9h3.9V-17.5z M91.2-1.9h-7.8V2h3.9V6h-3.9v3.9h-3.9V6h-3.9v7.8h-7.8v3.9
	h-3.9v-3.9V9.9h7.8V-1.9h7.8v-7.8h3.9v3.9h3.9v-3.9h-3.9v-3.9h3.9v-3.9h3.9V-1.9z M79.5,25.5h-3.9v-3.9h3.9V25.5z M67.8,21.6v3.9
	h-3.9v3.9h3.9v-3.9h3.9v3.9h3.9v7.8h-7.8v3.9H60V17.7h3.9v3.9H67.8z M79.5,29.4h3.9v3.9h3.9v3.9h-3.9v3.9h-7.8v-3.9h3.9V29.4z
	 M87.3,37.2h3.9V45h3.9v3.9H99v7.8h3.9v-3.9h3.9v7.8h3.9v-3.9h7.8v3.9h-3.9v3.9h-3.9v7.8h-3.9v-7.8h-3.9v-3.9h-7.8v7.8h-3.9V52.8
	h-7.8v-3.9h3.9V45h-3.9v-3.9h3.9V37.2z M118.5,48.9h3.9v3.9h3.9v7.8h-3.9v-3.9h-3.9v-3.9V48.9z M130.2,48.9V45H142v7.8H138v7.8h-3.9
	v-3.9h-3.9v-3.9h-3.9v-3.9H130.2z M134.1,41.1v-3.9h-3.9v-3.9h3.9v-3.9h-3.9v-3.9h7.8v-3.9h3.9v-3.9h3.9v7.8H142v3.9H138v7.8h11.7
	v3.9h3.9V45H142v-3.9H134.1z M149.8,9.9h-3.9V2H142v-3.9h7.8V2h7.8V6h3.9v7.8h-3.9V9.9h-3.9v3.9h-3.9V9.9z M161.5,2v-3.9h3.9V2
	H161.5z M165.4-5.8h-3.9v-3.9h11.7v3.9h-3.9v3.9h-3.9V-5.8z M157.6-13.6h-7.8v-3.9h-3.9v3.9v3.9H142v-3.9H138v3.9h-11.7v-3.9h-11.7
	v-3.9h-3.9v3.9h3.9v3.9h-7.8v-3.9h-3.9v7.8H99v-7.8h-3.9v-3.9h-3.9v-3.9h3.9v-3.9H99v3.9h3.9v-3.9h3.9v3.9h11.7v3.9h7.8v-3.9h7.8
	v-7.8h3.9v11.7h3.9v-7.8h7.8v3.9h11.7v3.9h-3.9V-13.6z M153.7-29.2v-3.9V-37h3.9v3.9h3.9v3.9H153.7z M157.6-40.9h-3.9v-11.7h3.9v7.8
	h3.9v7.8h-3.9V-40.9z M165.4-48.7h3.9v3.9h-3.9V-48.7z M145.9-48.7v-3.9h3.9v3.9H145.9z M145.9-44.8H142v-3.9h3.9V-44.8z M138-48.7
	v-3.9h3.9v3.9H138z M142-37h3.9v-3.9h3.9v7.8h-3.9v3.9H138v-11.7h3.9V-37z M153.7-29.2v3.9h-3.9v-3.9H153.7z M95.1-5.8H99v3.9h7.8V2
	h-3.9V6H99V2h-3.9V6h-3.9V2v-3.9h3.9V-5.8z M87.3,13.8h-3.9V9.9h3.9V13.8z M91.2,17.7h-3.9v-3.9h3.9V17.7z M95.1,21.6h-3.9v-3.9h3.9
	V21.6z M99,17.7h-3.9V6H99v3.9h3.9v15.6h3.9v3.9H99v-3.9h-3.9v-3.9H99V17.7z M99,29.4v3.9h3.9v3.9h3.9v-7.8h3.9v-7.8h-3.9v-3.9h3.9
	v-3.9h-3.9V9.9h-3.9V6h3.9V2h7.8V6h-3.9v3.9h3.9v3.9h3.9v3.9h3.9v7.8h-3.9v3.9h7.8v3.9v3.9h3.9v3.9h-7.8V45h-3.9v3.9h-3.9v-7.8h3.9
	v-3.9h-3.9v-3.9h-3.9v3.9h3.9v3.9h-7.8v7.8h-3.9v-7.8H99v-3.9h-3.9v-3.9h-7.8v-3.9h3.9v-3.9h3.9v3.9H99z M134.1,17.7h3.9v3.9h-3.9
	V17.7z M138,9.9h7.8v3.9H142v3.9H138V9.9z M134.1,2h-3.9v11.7h-3.9V9.9h-3.9v3.9h-3.9V9.9V2h3.9V6h3.9V2h-3.9v-3.9h7.8v-3.9h7.8V9.9
	h-3.9V2z M122.4-5.8v3.9h-3.9V2h-3.9v-3.9h-3.9v-3.9h7.8v-3.9h7.8v3.9H122.4z M126.3,13.8v3.9h-3.9v-3.9H126.3z M134.1,13.8v3.9
	h-3.9v-3.9H134.1z M130.2,21.6h-3.9v-3.9h3.9V21.6z M142-9.7v3.9H138v-3.9H142z M149.8-9.7h3.9v7.8h-3.9V-9.7z M110.7,52.8v-3.9h3.9
	v3.9H110.7z M83.4,25.5h3.9v3.9h-3.9V25.5z M83.4,21.6v-3.9h3.9v3.9H83.4z M83.4-29.2h3.9v-3.9h3.9v-7.8h3.9v15.6H83.4V-29.2z
	 M169.3-64.3h3.9v3.9h-3.9V-64.3z M181-52.6v3.9h-3.9v-3.9H181z M181,6v3.9h-3.9V6H181z M161.5,68.4h-11.7v-3.9h3.9v-7.8h7.8V68.4z
	 M161.5,84v-3.9h3.9V84H161.5z M145.9,60.6h3.9v3.9h-3.9V60.6z M142,56.7h3.9v3.9H142V56.7z M149.8,52.8v3.9h-3.9v-3.9H149.8z
	 M134.1,68.4h3.9v3.9h-7.8v3.9h3.9v3.9h-3.9V84h-3.9v-3.9h-3.9V84h-7.8v-7.8h3.9v-3.9h7.8v-7.8h3.9v-3.9h3.9v3.9V68.4z M142,68.4
	h3.9v7.8H138v-3.9h3.9V68.4z M149.8,72.3h3.9v7.8h-3.9V84H138v-3.9h7.8v-3.9h3.9V72.3z M157.6,84h-3.9v-3.9h3.9V84z M102.9,72.3H99
	v-7.8h3.9V72.3z M106.8,76.2V84h-3.9v-3.9H99V84h-3.9V72.3H99v3.9H106.8z M75.6,48.9h3.9v3.9h-7.8v-3.9h-3.9V45h3.9v-3.9h3.9V48.9z
	 M60,52.8v-3.9h7.8v3.9H60z M60-1.9h3.9V9.9H60V-1.9z M67.8-5.8h3.9v3.9h-3.9V-5.8z M60-13.6v-3.9h3.9v3.9H60z M91.2-56.5h3.9v11.7
	h-3.9V-56.5z M102.9-60.4v-3.9H99v-7.8h-3.9V-76h7.8v7.8h3.9v-3.9h3.9v3.9h3.9v3.9h-3.9v3.9h3.9v3.9h-7.8v-3.9H102.9z M95.1-60.4
	v-3.9H99v3.9H95.1z M91.2-68.2v-3.9h3.9v3.9H91.2z M114.6-76h11.7v3.9h-7.8v3.9h-3.9V-76z M110.7-48.7h-3.9v-3.9h3.9V-48.7z
	 M106.8-40.9h3.9v3.9h-3.9V-40.9z M114.6-52.6h3.9v7.8h-3.9V-52.6z M122.4-44.8v3.9h-3.9v-3.9H122.4z M122.4-48.7v-3.9h3.9v3.9
	H122.4z M188.8-52.6v3.9h-3.9v-3.9H188.8z M192.7-44.8h7.8v3.9h7.8v3.9h-7.8v7.8h-7.8V-44.8z M196.6-25.3v3.9h-3.9v-3.9H196.6z
	 M204.4-9.7v-3.9h-3.9v-3.9h7.8v7.8h3.9v3.9h3.9v-7.8h3.9V2h-3.9v-3.9h-7.8V2h-3.9v-7.8h-3.9v-3.9H204.4z M212.2-17.5h3.9v3.9h-3.9
	V-17.5z M212.2-21.4v-11.7h3.9v3.9h3.9v11.7h-3.9v-3.9H212.2z M208.3-17.5v-3.9h3.9v3.9H208.3z M196.6-9.7v-3.9h3.9v3.9H196.6z
	 M192.7-5.8v-3.9h3.9v3.9H192.7z M212.2-37v-7.8h3.9v3.9h3.9v7.8h-3.9V-37H212.2z M208.3,21.6h3.9v3.9h-3.9V21.6z M212.2,13.8h3.9
	v3.9h-3.9V13.8z M216.1,6h3.9v7.8h-3.9V6z M192.7,72.3v3.9h-3.9v-3.9H192.7z M204.4-21.4h-3.9v-3.9h3.9V-21.4z M208.3-29.2h-3.9
	v-3.9h3.9V-29.2z M192.7-76H220v27.3h-27.3V-76z M196.6-52.6h19.5v-19.5h-19.5V-52.6z M200.5-68.2h11.7v11.7h-11.7V-68.2z M138-76
	h3.9v3.9H138V-76z M60-76h27.3v27.3H60V-76z M63.9-52.6h19.5v-19.5H63.9V-52.6z M67.8-68.2h11.7v11.7H67.8V-68.2z M63.9-5.8H60v-3.9
	h3.9V-5.8z M87.3,84H60V56.7h27.3V84z M83.4,60.6H63.9v19.5h19.5V60.6z M79.5,76.2H67.8V64.5h11.7V76.2z"/>
<path class="st1" d="M140-18c12.1,0,22,9.9,22,22s-9.9,22-22,22s-22-9.9-22-22S127.9-18,140-18z"/>
<path class="st2" d="M150.1,13.4c-0.7,0-15.4,0-15.4,0c-1.3,0-2.3-0.9-2.3-2.2c0,0,0-9.8,0-9.9c0-0.5-0.3-1.1-0.8-1.3
	c-0.8-0.5-1.7-1.6-1.7-2.6c0-1.6,1.3-2.8,2.9-2.8c1.6,0,2.9,1.2,2.9,2.8c0,1.3-1.1,2.5-2.4,2.8V2c2.1-0.4,4-2.3,4-4.5
	c0-2.5-2-4.5-4.5-4.5s-4.5,2-4.5,4.5c0,1.6,1.2,3.2,2.5,4c0,0,0,9.4,0,9.8c0,2.2,1.7,3.8,3.9,3.8h17C151.6,15,151.1,13.4,150.1,13.4
	z M131.5-2.5c0-0.7,0.5-1.2,1.2-1.2s1.2,0.5,1.2,1.2s-0.5,1.2-1.2,1.2C132.1-1.3,131.5-1.8,131.5-2.5z M138.1,11.8
	c-0.8,0-1.6-0.7-1.6-1.6V7.6h1.6V11.8L138.1,11.8z M149,11.8L149,11.8c-0.8,0-1.6-0.7-1.6-1.6V7.6h1.6V11.8L149,11.8z M149,4v1.6
	h-5.2v6.2l0,0c-0.8,0-1.6-0.7-1.6-1.6V5.5h-5.7l0,0c-0.9,0-1.6-0.7-1.6-1.6l0,0h7.2V1.8h-3.6l0,0c-0.9,0-1.6-0.7-1.6-1.6l0,0h3.5h7
	v-1.5c0-1.3-1.1-2.1-2.4-2.1h-5.2l0,0c-0.9,0-1.6-0.7-1.6-1.6l0,0h6.8c2.2,0,4,1.5,4,3.7c0,0.4,0,1.2,0,1.9v1.1h-1.6h-3.6V4H149z"/>
</svg>
