<?xml version="1.0" encoding="utf-8"?>
<!-- Generator: Adobe Illustrator 19.0.0, SVG Export Plug-In . SVG Version: 6.00 Build 0)  -->
<svg version="1.1" id="图层_1" xmlns="http://www.w3.org/2000/svg" xmlns:xlink="http://www.w3.org/1999/xlink" x="0px" y="0px"
	 viewBox="-4 6 100 100" style="enable-background:new -4 6 100 100;" xml:space="preserve">
<style type="text/css">
	.st0{fill:#3BBE7A;}
	.st1{fill:#FFFFFF;}
</style>
<path class="st0" d="M46,6c27.6,0,50,22.4,50,50s-22.4,50-50,50S-4,83.6-4,56S18.4,6,46,6z"/>
<path class="st1" d="M66.1,74.7c-1.3,0-30.7,0-30.7,0c-2.6,0-4.6-1.7-4.6-4.4V50.8c0-1.1-0.6-2.1-1.5-2.7C27.8,47.1,26,45,26,43
	c0-3.1,2.7-5.7,5.8-5.7s5.7,2.5,5.7,5.7c0,2.6-2.3,4.9-4.6,5.6v3.3c4.2-0.7,7.8-4.5,7.8-8.9c0-4.9-4.1-8.8-8.9-8.8c-4.9,0-9,4-9,8.8
	c0,3.1,2.4,6.3,4.8,7.8c0,0,0,18.7,0,19.5c0,4.4,3.4,7.5,7.7,7.5h33.8C69.2,77.9,68.2,74.7,66.1,74.7z M29.3,43
	c0-1.4,1.1-2.5,2.5-2.5c1.4,0,2.5,1.1,2.5,2.5s-1.1,2.5-2.5,2.5C30.4,45.5,29.3,44.4,29.3,43z M42.2,71.5c-1.6,0-3.1-1.5-3.1-3.1
	v-5.1h3.1V71.5L42.2,71.5z M64,71.5L64,71.5c-1.6,0-3.1-1.4-3.1-3.1v-5.1H64V71.5L64,71.5z M64,56.1v3.2H53.7v12.3l0,0
	c-1.6,0-3.1-1.5-3.1-3.1v-9.2H39.2l0,0c-1.7,0-3.1-1.4-3.1-3.1l0,0h14.4v-4.1h-7.2l0,0c-1.7,0-3.1-1.4-3.1-3.1l0,0h6.9h13.7v-3
	c0-2.6-2.2-4.3-4.8-4.3H45.7l0,0c-1.7,0-3.1-1.4-3.1-3.1l0,0H56c4.4,0,8,3,8,7.4c0,0.6,0,2.5,0,3.9v2.2h-3.1h-7.2v4.1H64V56.1z"/>
</svg>
