<?xml version="1.0" encoding="utf-8"?>
<!-- Generator: Adobe Illustrator 19.0.0, SVG Export Plug-In . SVG Version: 6.00 Build 0)  -->
<svg version="1.1" id="图层_1" xmlns="http://www.w3.org/2000/svg" xmlns:xlink="http://www.w3.org/1999/xlink" x="0px" y="0px"
	 viewBox="0 0 110 110" style="enable-background:new 0 0 110 110;" xml:space="preserve">
<style type="text/css">
	.st0{opacity:0.95;fill:#FFFFFF;}
</style>
<path class="st0" d="M55,0C24.6,0,0,24.6,0,55s24.6,55,55,55s55-24.6,55-55S85.4,0,55,0z M55,108C25.8,108,2,84.2,2,55S25.8,2,55,2
	s53,23.8,53,53S84.2,108,55,108z"/>
<path class="st0" d="M77,41h-8v-6c0-2.2-1.8-4-4-4H45c-2.2,0-4,1.8-4,4v6h-8c-2.2,0-4,1.8-4,4v30c0,2.2,1.8,4,4,4h44
	c2.2,0,4-1.8,4-4V45C81,42.8,79.2,41,77,41z M63,62h-6v6c0,1.1-0.9,2-2,2s-2-0.9-2-2v-6h-6c-1.1,0-2-0.9-2-2s0.9-2,2-2h6v-6
	c0-1.1,0.9-2,2-2s2,0.9,2,2v6h6c1.1,0,2,0.9,2,2S64.1,62,63,62z M65,41H45v-6h20V41z"/>
</svg>
